<?xml version="1.0" ?><svg height="400px" version="1.1" viewBox="0 0 400 400" width="400px" xmlns="http://www.w3.org/2000/svg" xmlns:xlink="http://www.w3.org/1999/xlink"><title/><desc/><defs><path d="M209,128.000051 C209,123.579786 205.418329,120 201.000113,120 L198.999887,120 C194.577742,120 191,123.581745 191,128.000051 L191,182.134575 C184.474842,185.428214 180,192.191529 180,200 C180,211.045695 188.954305,220 200,220 C202.18992,220 204.297634,219.648033 206.269659,218.997581 L260.479747,273.207669 C263.60427,276.332192 268.668663,276.331337 271.792813,273.207187 L273.207187,271.792813 C276.334116,268.665884 276.331553,263.603631 273.207669,260.479747 L218.997581,206.269659 C219.648033,204.297634 220,202.18992 220,200 C220,192.191529 215.525158,185.428214 209.000002,182.134584 L209,128.000051 Z" id="path-1"/><filter filterUnits="objectBoundingBox" height="200%" id="filter-2" width="200%" x="-50%" y="-50%"><feOffset dx="0" dy="4" in="SourceAlpha" result="shadowOffsetOuter1"/><feGaussianBlur in="shadowOffsetOuter1" result="shadowBlurOuter1" stdDeviation="2"/><feColorMatrix in="shadowBlurOuter1" type="matrix" values="0 0 0 0 0   0 0 0 0 0   0 0 0 0 0  0 0 0 0.5 0"/></filter><path d="M358.762125,180 C348.920163,101.073768 281.592353,40 200,40 C111.63444,40 40,111.63444 40,200 C40,288.36556 111.63444,360 200,360 C259.22257,360 310.930063,327.82413 338.594823,280.000045 L289.44426,280 C267.471438,304.549974 235.539993,320 200,320 C133.72583,320 80,266.27417 80,200 C80,133.72583 133.72583,80 200,80 C259.459926,80 308.819269,123.245733 318.340831,180 L300,180 L340,240 L380,180 L358.762125,180 L358.762125,180 Z" id="path-3"/><filter filterUnits="objectBoundingBox" height="200%" id="filter-4" width="200%" x="-50%" y="-50%"><feOffset dx="0" dy="4" in="SourceAlpha" result="shadowOffsetOuter1"/><feGaussianBlur in="shadowOffsetOuter1" result="shadowBlurOuter1" stdDeviation="2"/><feColorMatrix in="shadowBlurOuter1" type="matrix" values="0 0 0 0 0   0 0 0 0 0   0 0 0 0 0  0 0 0 0.5 0"/></filter></defs><g fill="none" fill-rule="evenodd" id="Page-1" stroke="none" stroke-width="1"><g id="clock"><g fill="#AAD8B0" id="radial_arrows"><path d="M200,400 C310.45695,400 400,310.45695 400,200 C400,89.54305 310.45695,0 200,0 C89.54305,0 0,89.54305 0,200 C0,310.45695 89.54305,400 200,400 Z" id="Background-Copy-2"/></g><g id="Combined-Shape"><use fill="black" fill-opacity="1" filter="url(#filter-2)" xlink:href="#path-1"/><use fill="#D98383" fill-rule="evenodd" xlink:href="#path-1"/></g><g id="Combined-Shape"><use fill="black" fill-opacity="1" filter="url(#filter-4)" xlink:href="#path-3"/><use fill="#697F9B" fill-rule="evenodd" xlink:href="#path-3"/></g></g></g></svg>